# xmcd
#
# Track frame offsets: 
#        150
#        25733
#        41642
#        67499
#        86814
#        109913
#        125137
#        145256
#        164673
#        174789
#        202852
#        221320
#        242283
#        262958
#        273708
#        286270
#        306963
#
# Disc length: 4478 seconds
#
# Revision: 0
# Processed by: cddbd v1.5.2PL0 Copyright (c) Steve Scherf et al.
# Submitted via: ExactAudioCopy v0.95b4
#
DISCID=fe117c11
DTITLE=John Lee Hooker - Simply The Truth Boom Boom
DYEAR=1900
DGENRE=Blues
TTITLE0=I Don't Wanna Go To Vietnam
TTITLE1=I Wanna Boogaloo
TTITLE2=Tantalizing With The Blues
TTITLE3=I'm Just A Drifter
TTITLE4=Mini Skirts
TTITLE5=Mean Mean Woman
TTITLE6=One Room Country Shack
TTITLE7=Boom Boom
TTITLE8=I'm Bad Like Jesse James
TTITLE9=Same Old Blues Again
TTITLE10=Sugar Mama
TTITLE11=Trick Bag
TTITLE12=Boogie At Russian Hill
TTITLE13=Hittin' The Bottle Again
TTITLE14=Bottle Up And Go
TTITLE15=Thought I Heard
TTITLE16=I Ain't Gonna Suffer No More
EXTD=
EXTT0=
EXTT1=
EXTT2=
EXTT3=
EXTT4=
EXTT5=
EXTT6=
EXTT7=
EXTT8=
EXTT9=
EXTT10=
EXTT11=
EXTT12=
EXTT13=
EXTT14=
EXTT15=
EXTT16=
PLAYORDER=
